<svg width="24" height="24" viewBox="0 0 24 24" fill="none" xmlns="http://www.w3.org/2000/svg">
<path d="M15.6853 3.82775C16.1589 3.30492 16.5201 2.69763 16.7479 2.04075C16.9758 1.38387 17.066 0.690347 17.0133 0C15.5593 0.112417 14.2095 0.767416 13.2549 1.82388C12.7978 2.33022 12.4513 2.91926 12.2362 3.55614C12.021 4.19301 11.9414 4.86477 12.0021 5.53163C12.7114 5.53729 13.4125 5.38656 14.0512 5.09109C14.6899 4.79563 15.249 4.36336 15.6853 3.82775ZM18.8423 12.7552C18.8507 11.8357 19.1036 10.9335 19.5771 10.1336C20.0505 9.33368 20.729 8.66253 21.5484 8.18346C21.0312 7.46979 20.3476 6.88134 19.5517 6.46478C18.7558 6.04822 17.8695 5.815 16.9632 5.78362C15.0088 5.59163 13.2048 6.87554 12.165 6.87554C11.1252 6.87554 9.65942 5.80761 8.0308 5.83161C6.96609 5.86521 5.92865 6.16253 5.01966 6.69458C4.11067 7.22663 3.36117 7.97525 2.84427 8.86741C0.639362 12.5392 2.28051 17.9988 4.48541 20.9626C5.48764 22.4145 6.74043 24.0584 8.39411 23.9984C10.0478 23.9384 10.5865 23.0145 12.5032 23.0145C14.42 23.0145 15.0088 23.9984 16.6374 23.9624C18.2661 23.9264 19.4186 22.4745 20.471 21.0226C21.2164 19.9685 21.7987 18.8167 22.1998 17.6028C21.2069 17.1973 20.3599 16.522 19.7632 15.6605C19.1665 14.799 18.8464 13.789 18.8423 12.7552Z" fill="#333333"/>
</svg>
