<svg width="24" height="24" viewBox="0 0 24 24" fill="none" xmlns="http://www.w3.org/2000/svg">
<g clip-path="url(#clip0_8324_54821)">
<path d="M23.9875 12.2242C23.9875 11.2409 23.9059 10.5234 23.7292 9.7793H12.2393V14.2173H18.9836C18.8477 15.3202 18.1134 16.9811 16.4817 18.0972L16.4588 18.2458L20.0917 20.996L20.3434 21.0205C22.6549 18.9344 23.9875 15.8649 23.9875 12.2242Z" fill="#4285F4"/>
<path d="M12.2391 23.9178C15.5433 23.9178 18.3171 22.8548 20.3432 21.0211L16.4815 18.0978C15.4481 18.8021 14.0611 19.2937 12.2391 19.2937C9.00291 19.2937 6.25622 17.2076 5.27711 14.3242L5.13359 14.3361L1.35604 17.193L1.30664 17.3271C3.31906 21.2337 7.45273 23.9178 12.2391 23.9178Z" fill="#34A853"/>
<path d="M5.27678 14.3248C5.01843 13.5807 4.86891 12.7834 4.86891 11.9596C4.86891 11.1357 5.01843 10.3385 5.26318 9.59439L5.25634 9.43592L1.43145 6.5332L1.30631 6.59137C0.476896 8.21247 0.000976562 10.0329 0.000976562 11.9596C0.000976562 13.8863 0.476896 15.7066 1.30631 17.3277L5.27678 14.3248Z" fill="#FBBC05"/>
<path d="M12.2391 4.62403C14.5371 4.62403 16.0871 5.59402 16.971 6.40461L20.4248 3.10928C18.3036 1.1826 15.5433 0 12.2391 0C7.45273 0 3.31906 2.68406 1.30664 6.59056L5.26351 9.59359C6.25622 6.7102 9.00291 4.62403 12.2391 4.62403Z" fill="#EB4335"/>
</g>
<defs>
<clipPath id="clip0_8324_54821">
<rect width="24" height="24" fill="white"/>
</clipPath>
</defs>
</svg>
